# xmcd
#
# Track frame offsets: 
#        150
#        17295
#        34362
#        53320
#
# Disc length: 921 seconds
#
# Revision: 0
# Processed by: cddbd v1.5.2PL0 Copyright (c) Steve Scherf et al.
# Submitted via: ExactAudioCopyFreeDBPlugin 1.0
#
DISCID=20039704
DTITLE=Isabelle Boulay - Parle-moi [CDS)
DYEAR=2000
DGENRE=Chanson
TTITLE0=Parle-moi
TTITLE1=Parle-moi (Instrumental)
TTITLE2=Je n'voudrais pas t'aimer
TTITLE3=Je t'oublierai, je t'oublierai
EXTD=
EXTT0=
EXTT1=
EXTT2=
EXTT3=
PLAYORDER=
